<mxfile host="app.diagrams.net" modified="2022-04-27T08:08:27.601Z" agent="5.0 (Windows NT 10.0; Win64; x64) AppleWebKit/537.36 (KHTML, like Gecko) Chrome/95.0.4638.54 Safari/537.36" etag="SpeaqEwX8lh6iuCKO3Vd" version="17.4.6" type="github">
  <diagram id="CAygdLcIrVdQRKdpb-vl" name="Page-1">
    <mxGraphModel dx="1422" dy="762" grid="1" gridSize="10" guides="1" tooltips="1" connect="1" arrows="1" fold="1" page="1" pageScale="1" pageWidth="827" pageHeight="1169" math="0" shadow="0">
      <root>
        <mxCell id="0" />
        <mxCell id="1" parent="0" />
        <mxCell id="-o8HXVUeu20-IJUAw4xM-4" value="" style="shape=image;imageAspect=0;aspect=fixed;verticalLabelPosition=bottom;verticalAlign=top;image=data:image/webp,UklGRtooAABXRUJQVlA4IM4oAAAQmgCdASp3ASwBPm00lUgkIyIhJHSquIANiWVu/HyZN+f+yY+iyPovPbrz+s4AM2Hd9nE/1/qK/TX/X9wD9c+lh+63qD/mX+h/bT3o/Rj/ivUA/yfUb+gB5eXsxf2H/q/uv7Zeq5+Tf8B2g/3f+/fjh6m/i3zf9i/Jz+7e4xlP7M9RT459qvzX9+/cb+3/vD8m96/xA/rf75+QfyBfjH8n/vn9p/bT/D/u97qOyO3DzAvZX6L/lfzn/w3xE+2/630G+wn+1+4/7Af6L/U/8x+dX+X9qTwb/xH/L9gL+Vf2P/hf4T8mPpo/o//R/k/9b+5Htl/QP8R/4v818BP8r/rf/A/v/75f5n////T7wP/r7ff27/+3ugfsP/8ihusgGuc285t5zbzm3nNvObec285t5zbzm3nNu82i0SvDt1j6CAUMlbEmyT21kA1zZW/9Ey2Q3ATUvTFkGNW6rqZdTPXitqdDRpEd+iAL/8kxa2SAnnuBVcpq3q7ZBq39w1Hn3q5c5OIeDeW56c+3ZFo0uopEIH6yL93HwgNj5A1BVdeyVm10Bq8e4X1z1SIJCUQKKs0FGedI++TOPv0kNbZI7Uz/Wo+4O5LqniajocOm1PvMCORI9buuHFKMAhyL1JIPMDEvgq+e/Zf/+FS6W2Wfw775WPNpEAMKpqYctz1q7fpmUdL8GKpAFsZVKra2VGb3y9jbROBqrskSmMIBpAuy3C8HPZe+uu/5CsmIE2crYLOqzOngGZtmK25LaCIj3fhaF81iKVNrdFbPM0kLEY0BUjHUjGE7RewDpxwf6YC7tNoXVbjUQ/svZi6QA57BYuTW1fbdfwywRPxL3HM2HPZoQUAg9f9XQdZ5kPNiCEbQ2RNHIf899xwzjztX1V6IfYbn6CBkhmoEpTJqjdmQvSNTpUzvUwfSrllb8fseTPd+6zlVo7ohwqlsPjm4U7U21/nd+sYHm7otsgjiSuygKwlpj0YD/+yGtb9CwQXItDazYXNg9+b4IXE3x/YpzpM1xYibbKtIL7syE2He32Maf3v7RQARif0SeEsFnZoFUZzUsgHUPDorc+wUkyCU/vdTKQYwL0hFB//noqp1VtUb+n4VzvcE0BBwkA/uJOFN3NdzciptUazyj/uSY1jSJHfuUltYQEfyvGevn3K916QRHzDzWQCboRdpooo4SbXnSYYLzihcuFRlY8BTziCEv9Q7MWDpuqZ9Fnmw8n4SURP9n0FxzyFvW5Bkq9Fz1kCwPENQqzvcpki5TZtqMf6iswJn9HdlYd17BZbLsoWF21qU5K67kHTcP7UHP3ZzhS0Mizbhz/UDxBGH1rMMkwS7BMYQVH757fUznwTWBIdUO+hl1hwVd1NKketzBJ+Ox4i7PbgIQsY4OgWzWv916jzrnUGKIXaupzKI3MrpKJBUcLv+QFEQnM/BtyKgI/jpDEsfZyOuTLWtr936kfEDRbx/JLQqYP/PQbwQoEgg8XqetXemGTJLAQ2XzLEzuSMO7TPg2pvRAAdGhQOoYBaHsRzO8zI+mELJjOF+1r3tDxshCNuiB9cKWMqemR1ib3lzLVR41Wlauy+34zNTE9c8Rpsto5DQHYfUA1zmPrQ05BwsqGpt5zb0hxAaQYcjh26yAa5zbzm3nNvObec285t5zbzUAAD+/5UAAAABi6tZTicm6sCtdeZAnOh/A5rg3I0lyZB5kikH8NtZ1XzfZMdxXd+fvidv+S09B/cRFDdjkGwz8Wdw+Qd26zhPrtG9hf6s4WNO45P6/lkl9IgjgYBL5z4KJBJsUckb6Klw9clJLuifHQ65SfXxJCsc6DqPdkua4N/ifMhMeMF+uOcUOjev9/EeRnWs4F4jWE1BCLPOaL2HRPNAomcliNzf3mCogNN0/4vqr2mTm2Pv3FoO23OJMzMV+VSdy9KT/bTK2HkD++NcMBFzxrGy7QbcIwQNjp1nhZOOnb/8NnNYN/IW1sSMvFokdX9TVkts7JgOO0LysyGdxrIrADJXmadmh7chVieUuK1oI+km5bXkN2Ke5/wSlfRmvFgMSzIM1W0kRn2xiiGZMFsn+Dq3HbPQjOjIPlQx7MCHm/0IwsizdCIF1Oe6bbyScx2QMnBMr8pbF2SwRJeNzJAr/6dxGf5/4tlcC9JLFEVmH9mJpr2NKeQu2ZAMMRbgEAVrtss8+MqfigBcL7TptgehhsvQw/48u3ED5AZGW+lku/R66uPIdS5KCkAoaq15Nm82iWLsyAn3yZH5ZNVpiMVPJWnF9kHskN4UXiUYU6Oa425z2MVJLK1/Oa8jhRIetmrk/3CZIEnrr6m6RUbxzLJYDb3zidCehCf9ZV4wS5orTTxg/6i4ETkCIDOlTSBgSVnkeS9e9i2N8uzxpjU/t5ULxWSafMaATDOXUlre5Qafu8RuDhFn57eYmhXrY8y7FgHL/5nP/ihYhG9sfEFUnwMUrOLsW12m6kXkoj8TiSRfidYX7xM8wNvOLL/pxRjSJa00fC47W+prncPc5f8doLULNaOznhXIsCWhb/APixiNNyz/sTlMVClqFTiA2Nha+yPl3Z3w3JvPWkMQrXmlD/26Qf4l0PP4nu0f1ISvM8qxtgM0PSwrWiEF+0FOqbovXbsybvtYEdsiwVE7/o/6CIy2i5FtnauIAiDhLlJ3JgYT7O0HwbpIa9ypF7dMmOLyCzuyGcPXi3WVbVGDjExmo5bnbmH3EP5KiQ2b1jLWE+vZMj/y/Hisxurll/FfvyEC3egZWRmi2RIc8RGPshwyfJzQ7T5y5L4GdZs3gTJgwGUEdDXpKHKjreY7QSG6M42wobeucWmBwoxJ6zX3nb7XcYMEKWj/Cg91bLUB1pPgTCIfykGcRjlIUime14YHWw4mnk9toFpXknolNHJBkWSh8U79hYw7XsmCCDcizYMo6jRMJZkSB0PITckhd7VcAoM8QSwi7pMPeGu2kAG7QB7ZpswPz/HOisuSCrMNE1IeN1EmC2MiptMDkxcFGPA4BwNKdymILX78flf+q7AW9ThjJaX/98h0iphle1yhTZtCXEgPdsEV8u7X1eIQyXnWlNsStalCtSvTctBfxPn3QVN3WSB2YKdI47ikhTZTkpwNHBsSKUrctlaePNI2e6hCB1hyXO3lFw0ZRH2/HLUb8GM6bIIrj1xQ0WbWJj0dO9pSeB4tQ9K/tYGrBiI2/iw/jzEmuyYMXsL4v6ud7Tfze2x20aytriAHbv1uWhhpYYdB2PCBfJcQmiJM4Hp80oYihHDxwunYGrIS5mKvXFYMpx+Ce50eh6GctnsTqTUU+l3KN06F3gw45yxu8htO+11GUqCTDZdlRjGzhC7Qpf0/D6fdcrNYP8UYxLJEgqJI43QMrBecToI7NXH6bnsLgNrseBU6TbcQTbRLSYwqYwzCQC8ZNGBEasadnSRQeOLY5ZmhU7vmhHvR5tg/P6kjtHfmr2Cb4z7aZaEcH8N7J/IMLKWMdhx7c43h4rRblOzkBFynyErS/OSEHMPRZ5q9RgKKo7n+IjKmtMDE7PpNy8WhMh4Y/KRryepGiLrp18TzIRVAdXQRkRaHE6gw/vZqtmPy8PydX1ZutMmaEvwC6gSu4YapOVmeQ+gcMAI2YvGJJTjeiZjVWRskjFz0ORQT5VIW1fw2I5WxSKFKQ3B5dV0sON8n+25RpAwSZASR3XAdSeiTTtDZnMB6aom5UTSut9yZZh2v8wyCbFYVahSbfcqKXP/49MWc46M8AlhNOPIToPxqflYxafH1UBEvipH0ARdRrSLqFONZbmX/UiHkQW3vXkuI9LnIGozWgyRPAtRPX6nzg/GXetG9tzO7O4waOHOHJ6fjXSHvmV2dlct3KuL4XxZAF9dWLLDfh18Z5GjPPZyuL7nQsgW0YqXcd9KHjQpOzqys/E7qG8NfREtdDI8tnyWq8lem7JGF2bG1U4rRCJVFuvgxKKVmX0jCHO19tvJdImwdkhPF5SHS3b6jbolUtE3qSk2fVfRg8tpkNKx1a/eq5Arnd77n19cptU1/ijH/jo+XnGBU3s3cEvk3EgVytA9OGEIckXGyA6pCsGampirlFx83Z20zH1D6NtWtwM8W2rC9NiK7+7h0FfxlsG4Ov3t1odx4/yr1bce8M70wbZJxXjO7cn4nIp88WsyVcaIJtLxEmytq6US8HowJmhphCixkHlzVbkhmOXTL5g67E5b6F17Pvb6PkVFfAcObRIShKBG+/FXixyieHRh5x1Bah3D7604Xj/qItBHl+QBfdWuya3feImHgUSmLb6ivCmMWv7Y8R+gbwbevm6+eflel04UZRh9ASTwR12JZxOZa+1cZJMFMvLW9bhwbNQTEod/RaxESrcJmHPf5fOL8hoqv35xXAAdh2Cp5VPhqO8jd7EYYPtUgC4oQBl/G+sWSrN/YHfvzz7TonbrtOwuduMM2bMUfJ1ISuD1s2yIxgDgjRoO1i5ZU+UUlmNmf5eUx9VUn9ivi1hjo4w627mmV7fmk8R1EGUbhB5iUc9z5bhJp/yVTFAAUzPmg7M9vFpJVfs4r5ZihHEKuFyJMZkupKJcCPBb78l4KHRRf8TeSJHK2G+hizzym6xL2FWxZGpjDFOologM2B30cuKnjicFb94MoZM1eqqSu5CHv9qmdRUf2PPRWQDoMvnrVY3Vu2BcfueYjervoQ0torHDU24YsiX8bJO8qlTLCXlm3vWEyPife0eElzvpwda+HohxaSQMT8QXnoDQruJFH9LwkIgwVuKf0MEhBvHWYXPpS4IJm3XNdqhuAOp/WfxTiNVjkBX8mBbkut6Ybjyp4gi7i6BrQ6PMPZqwiSnR+UbqNmhZfWBsDO4Y4LbAlz79bhLyvV5RwEQ4LURKOAUgi8qKqoReWxX9uimtLjlL49wQfBEzW0R+ejV6es/egmPEdX1NwBsUvNHPrSj4NVPOxuIv7GC8QHKTuHqYI4yTz8FJgMgRshNtcAiB8F2UgmOQwySOCrB2AFLJgd1nEJBEOfxDGtTFsP59+Ai+qWC8lLym5LbySsTx/UceCDfnCsaKARcla6q4HumgU17s/fWUBYBvBlucEWQeKwDMboBETehGa+vE+veAAsHZwsSxkCDl/2LTMnj+ppIP3v+B4tV+PmbzutPXbilD75X5CTr/5geRuRY9IhHs9uKD0c3jTGk5uTvJJKlVKhG8zRusECQDPgfanvv/VymjYtURZbbCL4Wl/Y7ezKrsmBZxIAiPT7wqo++7BE6qEwXoT2AEm3ldcj/GvX3hOj0wbtJ0PyLizOCI2uxwcSAFW1FCCZB0ixVfgRTlR27lEdqS3rX65SJJqb1/CbSSn/3ghUGwE5EbxFjG6K/JZxbRzcKEMHW6H1zZqIl3HGqN6idDaZGmjzWtA0MwxrKmjPHvBkPTyPTmiI9pYhaz1hqMWayRPNME0cFJ64mitNFB4loOmq/PWtsAS4nb0q/1JilfzdIdXg+eKw6Py9ZT6evDBrAvfNYL99yNm6wHUGNbBBgZ6sDK3KUkYUPWtpd0qKwx7w2hNVVpvO0iHCb3dOe8osO/4F/xwBeLFXfbeto1SITF04BSWcSGpkj1cuVToXnLCmA3SOjkjszzxW952sWmo2WP0c8KNcSp3zjuEuNahM+mc9KbWC6qWwqxSc6Z0ZPNOCNa0VbLv9A3MsylLZjfleV9/PSRvDD8ScE6BaTJ9GqrrcwvOxDLYGgmyiQcQxpvoT8pBdQKJNJSfUpFVmyCqfmYttpYDzyJ98sI+e4CdwxWtH9p/kwNNGSnX3yV4yYQxomqb4g+QWkqzegTzSrOwTicilrtT3nW1ipJElQ8HhNjhlznS3lasyYkSM1A4ebSOVVfuHDRdG2SOCkgDH43LtjVAm8VKp15TZgAiGuci7/L4sYjqAZc4eMzHKtJlADT1cc9ivpjklUBLNPz2RZvX371YXFsx7VwTW0WXevjLMjNfWCr4sBAn/IUVYJ/tuSQa/wv7xhFw/Go/ns4fEVy9UCRd+pg1Odzxn/vlflj5dukBo6JFBMFPSW4pX7JP5Pd+B+a6lyQF6dZTg+dYeVmUYx0v7ruHZDh3HrJphbCmz8FNvH62bA46aan0SbdhuQYdsyYyXFB9+sDUJAIxXbfDSPzN1FaXDAiOn/dTBVid35AKIABcu8zjuemM25AWMfwTJMFYt5M19y8zqTvuf2TzFALVd/yikQLL2/kXng/lz41P0sb1q/4cHvCmhgbUM0NlNnVevcTaqrhpsuh/Fm2qESykuVDDyRzDE0YdXsdBY5d6Sx/6u2hwF7bZI3LRuHvt/u8W2oVEeCBrzgRUDm9icZH2kPpwyQzP2wRHYTFnf9QifdCx4COcfd77j6+sXxlqmj8wneqAHZRfVdxN/7hyL5pwYDdCgpiU+NXlB/9zuuHfx9jxJvaLtn0nKaw7s4q/Xi8LzWgrcc+2XvxnGe108itzwnSSh5WQ+/UKmm4U02HfBQ8G4nruvrB1xuSy5XW/V6C7pHHnuqWW+AFMWX8AoKadGeIW+O6oyfg0d5QCeo2BVe+rrOPZT6wYIqV6xolnL6VxGYUlX3eDVwMncSyITOq5RkTkoaLuEEMGbpz8vGrefRXavyLUewHK7mbTC+erWj+RidpZC6+oAEU84k3kRlEYLC74gNUypRyUAS/1c/pRWH4Tgtk4/85+VXwdMXkoKxIriOR3H/iaqGgSNtycJgS1JH8H3A16vi76pa7jKq2rnKR9VzYqQiDVN4VYozMJt3t3gCDQl7UR4tVMghYbTmeu2IUcnyC9gnL6MzrrZGUvoFeEAe1/ZK5xm3+RoLXmtHiGaUtHSIJvL+pTTATZsJ1S48xy5K7ckeTz18hiSFd9JUTlbiEgTD8lBeP54zSqxhRHlO8vr/PvRBy555VTwL20shCLi2MLqlg259MIvD+Rh/nVq0ru9NnAiHB0CRneWRQriuWLFCemQUzlf3oRfu3ky0KJD8Y3yBnLpZp2UOW1J+nhHXKYcD3UIb/8b4HU3Kd0PowqHv7zsVw+wzcd+2F89bDhdnS8uiPjs/dnR8iMSv9kpowpdk29vz1pqXnnd5uBefMu1DwoN5Fima9bSAWKs9sMz84k4Wt+moIGda4l53+kmoRsWf/NYyFI10aUftjP89mtj9wWtfpG4cxGK1UWJqzexgwXqZT8Seo/hd2wWNWeGsF2chruIiXJGzpVQCdBkErffLxYHLUXx0LxYitl2kTvX9JnND514k33UIc5oqeA3NcCkSaIgiK0v2jqxPhGUZAa90esmaBdr6rwE1NTyPgwWuqsG4+KWpFkcfm08Uh8jyLa1FQKweA8dcQDYU/tXV7QNfRoelhSPQzWp+DDfCzsZuwMoKNjiARTwiD7gnURZemXn+WAU5mSt1IebmFw2A+uAwSPOYYu3TK2GR7ars8zPe/m4L0okxG+J2kPmJEUEt3txSTOESE9E9IMGp/Y5rUe19hXSSyLQdSqiD797WCFquEnwZp1QEC7B0XDFzOF8Mn+NOZQyrALI++8oZmUA5EOtuZLJnpUzXOkjVCrETya/pFhNc9eSv5UKyOkRKTEQqEjQoTXl82a8tVUXtSxKrNxGCMaw9tzLgcJ0y5YoEAUe8hT4cCaZxAxQm6Sv6dGcHqz8W7bjc46kasiIhwJVl2OlNFCTNQ7gAAFWexRVz7KqvzYJR/jcaeI7m+Lyto57uvsj67Tluu4aflI5+JJKkYHVflkVpDo3iLw9RdTLRYNZZuu0vbC6+uurSiEaC7oMsGnvYwa05gKxgHXYhwCmuo8CzxIZR1s5r0lGy8EEarsbDKasTjq/BHmMpeKKuK0LNE5N5tTi/dV3jwbW9P6CzlTDyYA5UdBjtfRwo/7sa8hSMCQMDFdETf3RWaghU4gX3HQpdH/23wXv5eoiGBKbFVD77Fng924b7BzWtiTeoJxMjToggxy29PvMQeb1gii6G/E9kT46uT+/G9lF1Xm5ijEHU9RvPqTTExpRrkIcwldnv+DqrGbjGmIyRZsiO/3kvcRV8o+sryh8JJW6VuqFk5kU2MWvzGYO4nJpB/tMtXiR1AJbR5tePvgy69zvR/7T/iYLB+QWgMbtj+es/5H2ee+eOZcwXFRxl8J4Mh6cwfW0uQqQENZxDZm9i2dbBBV3SdLA2599t6Z9ZkFTt1Vj+7c/+r3eSqer5tMl/Ymjne/TwiUK5f6nDn64Cx82R7UTTn+wyOkOSz4EWoZiNmNFMpUd5+IB6WVjhxU5To+GS/XAM6SSM20qNyQJci/s0WJCaPLwV3u1skH0D4QuEB++0qvQy3EKLSgGSdj6ZD17oG5sg+qa4eK+XKSTYt+JgJJ5l898nelI9nyDopfjsT2W3EOfloowtPwbshJ1T8k9/IuHFHx+19/H8wCw9oMyAXw7oBQ4K1rxC/kLvw8bI/Px38vb7t5zIca1a8vaJ8wqBdI26S2wLv0LfwH9z5IgF6oJ2CbG2uLIFUaLUd3iwMpme5cdN/fjWSHtsIacvG4D0DuToBznYqhEJztfEJa5eBehY/f3JOLsBKsW2uxqDERl+9la7XtRebhdEgSTrR5RKlSDJK2yHSm6KAZT58RjMvuQ3hltcBj/foDu//qeRks1bq6k4DVt2yrvbGxqoiEtUsTIcfmi8dDc564pLYM1WX/A6URNcOhDdlhddcQIVWACjBvc9Ta/7Hr26pmb0l/1y4e6/pGsnBYBz6OxBSIDgIalNNiWun4zH6nisOgOw/wEhPMY8rmeeL6dh1OYbWwWKr/7nwnKzVC8SQRtLCH6tlhNf3wm8J7IepjPAGNrWk2pxh4nUYooxkx/d7nlo/zL2mM9lrt3D8sRucSH1TJzJMt+hSVtmkiso9t2Yao0pm7kPZXnrVkssFHDECmrJCA4PyT/kF+qU+Vl6pWUcdrQ4lPJE2eiZZcE8ePkTnMtfBvzbiXpzkLH+HA0+QNTUB5t78mdwbXQdm3j5V5PCz1TzF0f4bJUt/7Jg2S9Ujwf7AlJYY9pFImifJmTBq7x3YhiCOH4ZkhJAh67WBQ69pJeNdaTJBCNegSR6+iEBuFqyfKtS6nZjAH4C7VR0qBOQ/vu6Wuh6U3K28dByt5tygbTq7TPDtViyMVF/V3+mQyVdArHG5cLQi9l5hbUtnqyOMRgVT3IO/XpqcjCp9p86bXevjmWDhHwaTyfvWceVK3bnXBV93G1xixXTUQOso+vVwDOOkDrwbOiCI8tNP2S5Whx+v5ayDUazbr30dOdUXPdhCynwdYttqBYvwmp7hCNcA3T3NjV+nI711Jb+6J6qj/wMci5/nLA6RR3o240YKcpYAVvTAb0L/fu6H0s/yURdA6lot+4mypagICJA1UXeNXUPO5bzAe4W16ZnfjyWfE/zhXvLTQeskw1pyau0TxSKvMNW0ZvkT4W5Bvjq+hKis/zOVn+56fgm4W4v7Rl4KNjLLJu0bY8fFRkOj7jad/yf7RtQ3rdNcqP+ZaPqfp6QCXe3rO3MeMbQuFKLlXfkaMsG+iEA7xCSwKR2hQKkfYtLtQMR1AMdGKAfKjINRJQXlZmwW1UU9/CRKdBgWxnhbXQDA90e2ehsbIMCvrc3P4VNIk/GyWrvCLdQPiqw2eBCsBWdz4dScDjSFAEkF39vy2K1HbfsOVO1vyKKvFY7Wwwd4yv9FgoJujcvSilnGzKuYoXcoznWXpmD9PqJ8YbtgyGsWXyDhpmHfpvpGbw144ao/B/xJxO7zlZFKaejgRv71Hd8pCU8R5oItQRbDUfXlu49lPuzK7SD8QK/YAWYoi+7++A+oKOlB0y2jnfB3U8w8SMH7KzSi+j+vv4jP2unSU9dDphgWae8RAWtH3MHb6FBUsH++82lHHuUqEktyhGpHV/I1rKbHvHVqdsI7b/NpOpboj/doJ2c90vSXLkRMNZ+uB3QdqTc+/4bHGeI1O3dqkCw7wZ9k2rt84e+HvbbYs9j/B4KIEx0Zt5oWtsP+reHxHmdMlodj13fzRElC4vKtRJbZDTfvX7at/R3DKVtEbdA9LGA8ZHiztxYMcg/XnAEgNJDDTzxT7+Dz9AfDnsViwv7C+eTNOjgDzvXnqZdcyWjqJAecV1xjqMluIHPaO/9raiVd3xS22exV7K92Bqjx6ZF0N4+beD2lmwOW7IfnffXV1BNVrsMPAB7wHv0rFOd0XZptlGjiOV+FrwtnjqrQ4uONi+UCzv/MbBEmMQQ0Y2qdlKciWKlEBHlSapNgO2w94TOSeEMNEZFnnsIJwo8k9XMOctbtqcL2zAvuR0NS7gfgm0x3iw4h3YOnuPvFnEAcBBk1q2ZiYDr4tlxsDruUjLFsUUDKuUfa2AhfBSRLMRJi4TuUNARSiuOcHWBRZDZcY9SbCm9Vdi504+dIzIP8GeQdogrSUr8IhFpSFmJYt/vuQceB3HBqWS7wrAMTIqqRb/g20t13XvR4lIzDh/5D/FAffaJ8TDtesSz+ACL7pS34AhaHeXuplJ2WglW8N1eSG0N/CeWEKsRC4mM42bazsL6h7XgtS+U+6e2RCdIGPi+Q0wCzhdNJSqmNot8ADK9fU8RE34i2FG6slF8888W6LM/WWs70oeUOcbcxsq0VRB1qwBj0Uammm9x9VqhdOH7+D//5zMW5GfHMA/ALThLV8pHlSuYMw0yk+YkqHlXWIp1Sj3Uqw6narPSTbOmHeJDH6m/lZi5M5aAeh8Bj/Z08dfQrT/KWiEEvvQFZN+73S+Aaa3hO+f9PwQTvD+l416m4l4yZn6pQULrB7fPzaoVesJRe/bGifXq4OhF9UbOeCOPlxrMmsHT+A7gTXOE7oDSSQqQnnMUBQBNgi3R9AFwk9s5en9f4mexgonEdrIRPbIrDkuBH0S8Fw6hcaP5615Mt1PoFoJlKmow8wwjS14/tAslATDPxEUyTfst4YTJB+WCPS1TFFujfXnz250vic83tNipYhN+kMOJzS9dp/qlAkkvROslbxUD/H+SMhmk9EwWTr+FrURatJJN3je+MPuigCkzRk6yYfBUxtpmJgqq8HnB4wigIyUCzdwu2NxqqGuLnCE1DvcaC8EI/VlwuaS0Gk+Jam7ePKk5Coj5lcrHmAHAeEBISsLrc7uH8j3hhMDv4fUZ1Mh5zfHd6DKxLkGnZ1C51H754vq64T92pb3suvhvuBCivh7WcX7pdKfhwxFhkAJG1euH+rGqk8xdOcYZ4nKqBF/x2/bZJ4iHWVthMxn/gunUC4VU9IyHqTCaY7ee29WKUGqhmrk13BEMjPFNCesZhCrAjv4/dUJwalMi3jYpKZZ5lvYADozRjGZcUvv4veezSRuVWyK5dt5ki3ScwyPmqmump5xrPNzhAdchkK2tqf7CMD03Q2GWyLWQYubFiCUYfkYh/cm/iDtFjbiIVd/rVzdFQdwFgoVLPIiOhnjCHfmZsQdPY5G5mYJk9qf8INf6R1vw3Y2EJWyB0bsxpC4mAXh3b+0yBV9Nq73GRf4QoEZbuqE+ScujakE3jd3vpLSSpSXiL/Kf4aoFi/fqF91BmIPZyQWtKrVT3xWBgzrYEeFc0yrEBFdocTBnSAp+qHMTcEBSznyEAk/zcPbKNAxfA2yvbPaM/iZuhlrgTREqh9WRwsTnWGmf9tp4MRoVGGN6BmBsIWF9l0b8tWj/nW2FRQ76FtWupzJtm+JaOBns8F8xOyAvDYrQRTpBnoGWmUNKgOB/3TZOu8NCVI+3/WqnfulGc+IrEHmsP9i6nEutnuAIZzl6777AAgQ1PJzL6t0td92J9gq6cMZmZS2s1NcHxwJtHfwd0/JjFizXCZG4WER/KQToH3/Iea0HrLSfmJe4l3y5JrJYdlkpy16AefVLd5Q460scjy4aQ5fN3rmQHlz2nf8eeoS+1JlWP4JXWFoS0sAkYELjAr7DNEo0FeTUGXqCMTNY8YS0+yby5ce65davxLxxAQ9rqR3OmjVaCkFwrlFhkjqJzppxpgwVcBc9zwO/vHUQwa0fuL5afeRGvqUtpN+tU114c7bUWQKM8twCYbCI/l77r6rntKVqnTooKm30n6ICvu6sBAJLcqgT1POKMAbiINnh3gX3lQ2caFMm/m5SVqK93wr3FJF9gw73qSxKwkto0IT9A4Oos6vvdSHGnYmgECfwLA0RNMYl/Yd0Qlc9QDfnhWWJsKBbD0/PTw+ww2uYHJ2fd5lptqVryP9gFqsx7ueCckMJppYTdvMPjw6Sc5Kz7EUxIizxb9s6VVEwQ0vb0VymmYuTZVP4kW1GpmzKQUB+nEkbFGEY9j0x4572KWLuNf1BBK0yETLnrSEWyAtpTAefe3fkItQvsc6wB2kYwxmEmuUlBwlfZCXGPBw7Tpy7BjsTpzM9/fwess8Zl9TM64DE6vKO3bEw3st/qHiMZael9jAXdQYOL8SLvpRmTiJJulzVQhJhsEVKGAbg8yF5m3LvCZbt1pL4Sjnw4K0Rog168W32sBzqaHRsjsSKwOKRDw86lliJwBk5GbXMCRrRDdCSbZnZ/N4eqEwvSv4zITyIqw1grB8tNIy4d1VoFqVknrSCMJM/fTO5Qc3lRxXp0fPZuqlhYrvlq6v/arCJSqmF5lMzyRhjMrJcr21EjMTDZbjdUK57mHhi38xLbHpw/VYVTHxaGIgm7V9h9HylnmXWgxPdzGE3BIoTQNXI7OolS9Q1moI70mYkNxWem3oXdQtshkMr68w/yIi9pGuyy/t3lpAqukiQeVf0NAEiX8S/+POtHl9D35d6Xm9J0vlt2VxYR1Tbzx+LowntcfkAmWZGF5LorHk8RmHlOlM43hU9IAY+nDhYqoZp1NtL4hz7RZxdt4W9DPTpQuMEbL/bdkc3na9UYS2Qwu8liDusp0xUd6JHcDGbr9xwDmqOQYRGs7xXgs1hTZaMXrAcU2V7OHSe6UUKkq6IiYFkTZ6mLcWDubb7kpaFE3EimVgo0/kLFnv6avfdFMH/Y8m9pLPXgjG4HIhzUswyZuvlTt3g5cBzC80OuY4vqfF63z0fj32WbpJ79xUOrubBl3t5pJ6jKulZgAwxNEjZM1nNgmIPCIYJlW4JjaSb0FU0rNYM3LlGdaYrLR65JsrR5X+MB8Y+vEmLCT691XX4qbzvjg5zNg4atOm/noKDpyE9Jm7/nkzifR/WkDBinwGZD9jpZQW0h956Shz5pB2UabvxI+fxyP7orRUaSzbyGYysZ2iJBfe1XV3prUNZBK3QDUps1VmVOU4ErHCFSZLIXDw7Pfu2QiS/mXhW96XVzkYfGAKzXpqYf0JmUL4qXZpM/eHiGXpeCHHKxGC3iC0cOXQ948/yjshiIdcQnuNufqbskJqtALR8o8Y8np1W1L5ECeLVhgWsYGG599BK2u/lyJtgsUPLbYhCCZz4BfZBRiJUI2vo+BJY1Ddi8dePpghms/HU5Whdz56svtFmYDoYnRMu9BW6+x6a+PPsh20dQiTqOg6iW6wnkRsqpUNtbalkqfihoNOFrNvzeHDuXHOPoRPMIkbbTKUd+E3ZIOmn+0I/vKgUGzBE6XcA5f8bh0kYJEgQ0g4urnglyPC08rIQhaDUaaWpgqvaWWb8gMrG62RPQkANnez8dQOFPJPA3jTRCFfmYK3IJiJOXzX0h7z6Mah/Z8YubAoxrg+doI5AYDqJYvAfBNTlxsBAMNi1ChujgouSLIcg9XxcAFcE0CgqeHMzik/wKo4/aZeMoE8bY1dSDI6bUnXwRAUik1BNyjiRvnZ1AZrK+tAoF6UIRL1QqDrgdnlrBPEY/TWJ+v7J7eMSpxs5k/ktXmLufEqU9H0Du9xhlAmRG/w06FKCtLFi7WS62nlQ3aS7v4oJMV/RDR6XZlmJDrWWFm5SykpD+k63Rn7Ltj2peTYsq7kZ5GrgwdGm/bActdehrEbRrlYh3R2namINhF7bb2iBkTqhtpTE8thbz6tzEKI4XnqV6XK+Jv/WToSgH7EM2TI6ISinUOUAAAAAAAAAA=;" vertex="1" parent="1">
          <mxGeometry x="60" y="160" width="525" height="420" as="geometry" />
        </mxCell>
        <mxCell id="-o8HXVUeu20-IJUAw4xM-6" style="edgeStyle=orthogonalEdgeStyle;rounded=0;orthogonalLoop=1;jettySize=auto;html=1;entryX=0.905;entryY=-0.002;entryDx=0;entryDy=0;entryPerimeter=0;" edge="1" parent="1" source="-o8HXVUeu20-IJUAw4xM-5" target="-o8HXVUeu20-IJUAw4xM-4">
          <mxGeometry relative="1" as="geometry" />
        </mxCell>
        <mxCell id="-o8HXVUeu20-IJUAw4xM-5" value="合格的抓捕者" style="text;html=1;align=center;verticalAlign=middle;resizable=0;points=[];autosize=1;strokeColor=none;fillColor=none;" vertex="1" parent="1">
          <mxGeometry x="525" y="20" width="90" height="20" as="geometry" />
        </mxCell>
        <mxCell id="-o8HXVUeu20-IJUAw4xM-8" style="edgeStyle=orthogonalEdgeStyle;rounded=0;orthogonalLoop=1;jettySize=auto;html=1;entryX=0.141;entryY=0.002;entryDx=0;entryDy=0;entryPerimeter=0;" edge="1" parent="1" source="-o8HXVUeu20-IJUAw4xM-7" target="-o8HXVUeu20-IJUAw4xM-4">
          <mxGeometry relative="1" as="geometry" />
        </mxCell>
        <mxCell id="-o8HXVUeu20-IJUAw4xM-7" value="为抗拒抓捕，不是为其它。" style="text;html=1;align=center;verticalAlign=middle;resizable=0;points=[];autosize=1;strokeColor=none;fillColor=none;" vertex="1" parent="1">
          <mxGeometry x="70" y="40" width="160" height="20" as="geometry" />
        </mxCell>
        <mxCell id="-o8HXVUeu20-IJUAw4xM-9" value="时间不能是犯罪预备。" style="text;html=1;align=center;verticalAlign=middle;resizable=0;points=[];autosize=1;strokeColor=none;fillColor=none;" vertex="1" parent="1">
          <mxGeometry x="190" y="620" width="140" height="20" as="geometry" />
        </mxCell>
      </root>
    </mxGraphModel>
  </diagram>
</mxfile>
